<svg xmlns="http://www.w3.org/2000/svg" width="430" height="165">
  <defs>
    <clipPath id="H">
      <path id="B" d="M1071-406c-4.566 0-8.428 3.068-9.625 7.25L1049-361h22l9.563-32v-.062c.019-.062.046-.125.063-.187.251-.876.375-1.793.375-2.75a10 10 0 0 0-10-10zm40 0a10 10 0 0 0-10 10c0 .957.124 1.874.375 2.75l.063.188c.01.019-.01.044 0 .063L1111-361h20l-10.375-37.75c-1.197-4.182-5.059-7.25-9.625-7.25z"/>
    </clipPath>
    <linearGradient id="X" x1="1156.096" x2="1144.038" y1="942.612" y2="897.612" href="#U">
      <stop offset="0"/>
      <stop offset="1" stop-opacity="0"/>
    </linearGradient>
    <linearGradient id="Y" x1="1103.75" x2="1103.75" y1="883.112" y2="905.884" href="#U">
      <stop offset="0" stop-color="#fff"/>
      <stop offset="1" stop-color="#ebf2fd"/>
    </linearGradient>
    <linearGradient id="Z" x1="284" x2="284" y1="-395" y2="-358.875" href="#U">
      <stop offset="0" stop-color="#a2c9ed"/>
      <stop offset="1" stop-color="#7a9dfc"/>
    </linearGradient>
    <linearGradient id="U" gradientUnits="userSpaceOnUse"/>
  </defs>
  <g transform="translate(-940 -777.362)">
    <path fill="#222" d="M1169 867.362a5 5 0 1 1-10 0 5 5 0 1 1 10 0zm-26 0a5 5 0 1 1-10 0 5 5 0 1 1 10 0z" opacity=".5"/>
    <path fill="url(#X)" d="M1100.75 887.362v10.031l-.75-.031c-4.566 0-8.428 3.068-9.625 7.25L1078 942.362h22l8.375-28h28.25l8.375 28h20l-9.031-32.75c-.956-3.339-5.755-9.136-9.969-11.344v-10.906z" opacity=".25"/>
    <path fill="url(#Y)" d="M1085 877.362h50v30h-50z"/>
    <use fill="url(#Z)" href="#B" transform="translate(19 1303.362)"/>
    <path fill="none" stroke="#222" stroke-linejoin="round" stroke-width="4" d="M1142 882.362s3 4 8 4 8-4 8-4z" opacity=".5"/>
    <path fill="#ebf2fd" d="M1135 877.362l-20-10h-10l-20 10z"/>
    <g fill="#fff" clip-path="url(#H)" mask="url(#M)" opacity=".4" transform="translate(19 1303.362)">
      <use x="1058.925" y="-387.5" href="#O"/><use x="1077.939" y="-387.5" href="#I"/><use x="1096" y="-387.5" href="#I"/><use x="1114.062" y="-387.5" href="#I"/><use x="1040.863" y="-350" href="#O"/><use x="1058.925" y="-350" href="#O"/><use x="1095.048" y="-350" href="#O"/><use x="1114.062" y="-350" href="#I"/>
    </g>
  </g>
</svg>
