<svg xmlns="http://www.w3.org/2000/svg" width="430" height="165">
  <defs>
    <linearGradient id="V" x1="1170" x2="1158.253" y1="936.112" y2="892.27" href="#U">
      <stop offset="0" stop-color="#222"/>
      <stop offset="1" stop-color="#222" stop-opacity="0"/>
    </linearGradient>
    <linearGradient id="X" x1="1115" x2="1115" y1="920.162" y2="946.062" href="#U">
      <stop offset="0" stop-color="#fff"/>
      <stop offset="1" stop-color="#dfe9fc"/>
    </linearGradient>
    <linearGradient id="Y" x1="315" x2="299.064" y1="200" y2="140.525" href="#U">
      <stop offset="0" stop-color="#c4c4c4"/>
      <stop offset="1" stop-color="#fff"/>
    </linearGradient>
    <linearGradient id="Z" x1="360" x2="360" y1="163.875" y2="200" href="#U">
      <stop offset="0" stop-color="#a2c9ed"/>
      <stop offset="1" stop-color="#7a9dfc"/>
    </linearGradient>
    <linearGradient id="U" gradientUnits="userSpaceOnUse"/>
  </defs>
  <g transform="translate(-940 -777.362)">
    <path fill="url(#V)" d="M1157 892.362c-6.149 0-11.303 4.265-12.656 10H1115v10h1.906l8.094 30h55l-10-37c-1.873-6.931-5.82-13-13-13z" opacity=".25"/>
    <path fill="#222" d="M1141 870.362a3 3 0 1 1-6 0 3 3 0 1 1 6 0z" opacity=".5"/>
    <path fill="#222" d="M1167 870.362a3 3 0 1 1-6 0 3 3 0 1 1 6 0z" opacity=".5"/>
    <path fill="none" stroke="#222" stroke-linecap="round" stroke-linejoin="round" stroke-width="4" d="M1142 883.362s3 1 8 1 8-1 8-1" opacity=".5"/>
    <g fill="#fff">
      <g stroke="#fff" stroke-width="2">
        <rect width="18" height="9" x="1155" y="864.362" fill-opacity=".471" rx="2"/>
        <rect width="18" height="9" x="1126" y="864.362" fill-opacity=".471" rx="2"/>
      </g>
      <path d="M1144 866.362h11v2h-11z"/>
    </g>
    <path fill="none" stroke="#fff" stroke-linecap="round" stroke-linejoin="round" stroke-width="2" d="M1174 867.362h9c2 0 2 2 2 2"/>
    <path fill="url(#X)" d="M1095 905.362h55l10 37h-55z"/>
    <path fill="#fff" d="M1095 892.362h42v13h-42z"/>
    <path fill="url(#Y)" d="M317 150c-6.148 0-11.985 4.146-12.656 10l-.344 3h-29v2 5h1.438L285 200h9.375l-8.031-30H325v-7h5c0-7.18-5.82-13-13-13z" transform="translate(820 742.362)"/>
    <use fill="url(#Z)" href="#B" transform="translate(19 1303.362)"/>
    <g fill="#fff" clip-path="url(#H)" mask="url(#M)" opacity=".4" transform="translate(19 1303.362)">
      <use x="1058.925" y="-387.5" href="#O"/><use x="1077.939" y="-387.5" href="#I"/><use x="1114.062" y="-387.5" href="#I"/><use x="1131.171" y="-387.5" href="#O"/><use x="1040.863" y="-350" href="#O"/><use x="1058.925" y="-350" href="#O"/><use x="1114.062" y="-350" href="#I"/><use x="1131.171" y="-350" href="#O"/>
    </g>
    <path fill="#fff" d="M1110 905.362c0-7.18-5.82-13-13-13s-13 5.82-13 13h13z"/>
  </g>
</svg>
